<svg xmlns="http://www.w3.org/2000/svg" xmlns:xlink="http://www.w3.org/1999/xlink" zoomAndPan="magnify" preserveAspectRatio="xMidYMid meet" version="1.0" viewBox="118.72 131.9 139.46 112.19"><defs><clipPath id="6f42186dc3"><path d="M 134.546875 194.429688 L 197.875 194.429688 L 197.875 244.089844 L 134.546875 244.089844 Z M 134.546875 194.429688 " clip-rule="nonzero"/></clipPath><clipPath id="e74d5dc52b"><path d="M 174.035156 155.78125 L 258.171875 155.78125 L 258.171875 240.191406 L 174.035156 240.191406 Z M 174.035156 155.78125 " clip-rule="nonzero"/></clipPath></defs><g clip-path="url(#6f42186dc3)"><path fill="#fad53f" d="M 197.796875 234.15625 C 186.742188 243.480469 165.070312 249.113281 150.75 237.785156 C 137.746094 227.496094 126.882812 214.738281 141.726562 199.871094 C 148.804688 192.777344 161.761719 193.460938 174.125 197.683594 C 172.921875 204.523438 173.828125 211.542969 178.652344 218.054688 C 183.015625 223.941406 189.8125 229.917969 197.796875 234.15625 " fill-opacity="1" fill-rule="nonzero"/></g><path fill="#9a76ed" d="M 197.796875 234.15625 C 189.8125 229.917969 183.015625 223.941406 178.652344 218.054688 C 173.828125 211.542969 172.921875 204.523438 174.125 197.683594 C 187.707031 202.308594 200.558594 211.230469 204.0625 218.8125 C 206.316406 223.71875 203.4375 229.414062 197.796875 234.15625 " fill-opacity="1" fill-rule="nonzero"/><g clip-path="url(#e74d5dc52b)"><path fill="#2fc9ff" d="M 242.277344 232.3125 C 227.882812 243.480469 211.15625 241.25 197.796875 234.15625 C 203.4375 229.414062 206.316406 223.71875 204.0625 218.8125 C 200.558594 211.230469 187.707031 202.308594 174.125 197.683594 C 175.816406 187.992188 181.710938 178.683594 186.515625 171.800781 C 196.0625 158.164062 222.984375 150.539062 242.277344 160.039062 C 261.574219 169.539062 265.28125 214.472656 242.277344 232.3125 " fill-opacity="1" fill-rule="nonzero"/></g><path fill="#9a76ed" d="M 172.675781 192.539062 C 175.898438 190.746094 174.3125 180.671875 172.675781 177.128906 C 171.039062 173.582031 155.082031 185.367188 158.050781 187.28125 C 161.019531 189.195312 168.003906 195.144531 172.675781 192.539062 " fill-opacity="1" fill-rule="nonzero"/><path fill="#fad53f" d="M 153.96875 184.828125 C 152.246094 187.695312 144.695312 183.8125 140.613281 176.464844 C 136.53125 169.125 136.902344 156.113281 150.257812 152.394531 C 163.617188 148.679688 179.617188 159 174.542969 172.46875 C 173.628906 174.894531 165.175781 166.195312 153.96875 184.828125 " fill-opacity="1" fill-rule="nonzero"/><path fill="#fad53f" d="M 178.652344 159.457031 C 180.3125 163.917969 203.320312 153.839844 202.207031 151.628906 C 201.09375 149.421875 176.332031 153.238281 178.652344 159.457031 " fill-opacity="1" fill-rule="nonzero"/><path fill="#fad53f" d="M 162.875 147.5625 C 166.585938 147.5625 166.113281 130.835938 160.761719 131.953125 C 158.226562 132.480469 159.164062 147.5625 162.875 147.5625 " fill-opacity="1" fill-rule="nonzero"/><path fill="#fad53f" d="M 134.574219 172.46875 C 134.644531 168.65625 118.351562 172.492188 118.722656 175.640625 C 119.09375 178.789062 134.472656 178.042969 134.574219 172.46875 " fill-opacity="1" fill-rule="nonzero"/><path fill="#ffffff" d="M 241.152344 190.183594 C 239.773438 184.9375 236.378906 181.160156 231.84375 179.8125 C 230.320312 179.363281 228.851562 179.132812 227.476562 179.132812 C 227.3125 179.132812 227.167969 179.160156 227.003906 179.164062 C 227.183594 178.480469 227.34375 177.722656 227.484375 176.867188 C 227.867188 174.511719 228.117188 169.265625 220 168.960938 C 214 168.738281 210.265625 173.003906 210.265625 179.511719 C 210.265625 180.792969 210.40625 181.972656 210.59375 182.980469 C 209.882812 182.785156 209.136719 182.65625 208.34375 182.65625 C 206.492188 182.65625 204.769531 183.304688 203.230469 184.585938 C 200.664062 186.726562 199.144531 190.21875 198.949219 194.421875 C 198.675781 200.414062 201.089844 206.574219 205.414062 210.90625 C 208.363281 213.863281 212.609375 215.425781 217.695312 215.425781 C 224.820312 215.425781 232.859375 212.246094 237.242188 207.695312 C 241.242188 203.539062 242.816406 196.503906 241.152344 190.183594 " fill-opacity="1" fill-rule="nonzero"/><path fill="#ffffff" d="M 216.933594 183.488281 C 216.761719 183.425781 216.570312 183.382812 216.367188 183.355469 C 216.511719 183.496094 216.714844 183.507812 216.933594 183.488281 " fill-opacity="1" fill-rule="nonzero"/><path fill="#fad53f" d="M 134.574219 157.972656 C 135.96875 155.304688 123.914062 142.730469 120.207031 147.5625 C 116.496094 152.394531 132.246094 162.433594 134.574219 157.972656 " fill-opacity="1" fill-rule="nonzero"/><path fill="#ff8ee0" d="M 216.636719 189.460938 C 220.382812 187.734375 222.328125 180.59375 230.863281 183.128906 C 239.398438 185.660156 240.554688 199.277344 234.757812 205.296875 C 228.964844 211.3125 214.492188 215.113281 207.851562 208.460938 C 201.214844 201.8125 200.875 191.046875 205.4375 187.246094 C 210 183.445312 214.386719 190.5 216.636719 189.460938 " fill-opacity="1" fill-rule="nonzero"/><path fill="#7ad450" d="M 215.933594 186.769531 C 214.433594 186.824219 210.132812 172.335938 220.082031 172.417969 C 230.035156 172.5 218.324219 186.6875 215.933594 186.769531 " fill-opacity="1" fill-rule="nonzero"/><path fill="#ffffff" d="M 160.425781 234.949219 C 158.539062 234.949219 156.789062 233.921875 155.867188 232.269531 L 154.226562 229.332031 L 150.882812 229.023438 C 148.886719 228.835938 147.203125 227.554688 146.484375 225.679688 C 145.769531 223.804688 146.167969 221.722656 147.53125 220.246094 L 149.808594 217.78125 L 149.074219 214.496094 C 148.722656 212.9375 149.09375 211.328125 150.085938 210.082031 C 151.089844 208.824219 152.578125 208.105469 154.171875 208.105469 C 154.933594 208.105469 155.667969 208.269531 156.367188 208.589844 L 159.414062 210 L 162.300781 208.285156 C 163.113281 207.800781 164.035156 207.546875 164.96875 207.546875 C 166.460938 207.546875 167.890625 208.191406 168.886719 209.316406 C 169.875 210.429688 170.339844 211.921875 170.164062 213.410156 L 169.765625 216.746094 L 172.289062 218.96875 C 173.796875 220.292969 174.40625 222.324219 173.886719 224.261719 C 173.367188 226.203125 171.820312 227.648438 169.851562 228.042969 L 166.5625 228.695312 L 165.230469 231.785156 C 164.40625 233.707031 162.519531 234.949219 160.425781 234.949219 " fill-opacity="1" fill-rule="nonzero"/><path fill="#2fc9ff" d="M 166.738281 213 C 166.910156 211.535156 165.332031 210.503906 164.0625 211.257812 L 160.421875 213.421875 C 159.917969 213.722656 159.296875 213.753906 158.765625 213.507812 L 154.921875 211.730469 C 153.582031 211.109375 152.113281 212.296875 152.4375 213.738281 L 153.371094 217.878906 C 153.496094 218.449219 153.335938 219.050781 152.9375 219.480469 L 150.0625 222.59375 C 149.0625 223.679688 149.734375 225.445312 151.203125 225.582031 L 155.421875 225.972656 C 156.003906 226.027344 156.523438 226.367188 156.808594 226.878906 L 158.875 230.582031 C 159.597656 231.871094 161.480469 231.773438 162.066406 230.417969 L 163.742188 226.519531 C 163.972656 225.980469 164.453125 225.589844 165.027344 225.476562 L 169.183594 224.652344 C 170.628906 224.363281 171.117188 222.539062 170.011719 221.5625 L 166.832031 218.761719 C 166.390625 218.375 166.167969 217.796875 166.238281 217.214844 L 166.738281 213 " fill-opacity="1" fill-rule="nonzero"/><path fill="#fad53f" d="M 138.164062 182.863281 C 137.296875 180.53125 118.953125 189.816406 120.765625 194.417969 C 122.578125 199.015625 139.695312 186.992188 138.164062 182.863281 " fill-opacity="1" fill-rule="nonzero"/></svg>