<svg xmlns="http://www.w3.org/2000/svg" xmlns:xlink="http://www.w3.org/1999/xlink" zoomAndPan="magnify" preserveAspectRatio="xMidYMid meet" version="1.0" viewBox="82.07 104.24 210.86 154.08"><defs><g/><clipPath id="af406ff065"><path d="M 134.546875 166.765625 L 197.875 166.765625 L 197.875 216.421875 L 134.546875 216.421875 Z M 134.546875 166.765625 " clip-rule="nonzero"/></clipPath><clipPath id="5c4f6c34ab"><path d="M 174.035156 128.117188 L 258.171875 128.117188 L 258.171875 212.527344 L 174.035156 212.527344 Z M 174.035156 128.117188 " clip-rule="nonzero"/></clipPath></defs><g clip-path="url(#af406ff065)"><path fill="#fad53f" d="M 197.796875 206.492188 C 186.742188 215.816406 165.070312 221.449219 150.75 210.121094 C 137.746094 199.832031 126.882812 187.074219 141.726562 172.207031 C 148.804688 165.113281 161.761719 165.796875 174.125 170.019531 C 172.921875 176.859375 173.828125 183.878906 178.652344 190.390625 C 183.015625 196.277344 189.8125 202.253906 197.796875 206.492188 " fill-opacity="1" fill-rule="nonzero"/></g><path fill="#9a76ed" d="M 197.796875 206.492188 C 189.8125 202.253906 183.015625 196.277344 178.652344 190.390625 C 173.828125 183.878906 172.921875 176.859375 174.125 170.019531 C 187.707031 174.644531 200.558594 183.566406 204.0625 191.148438 C 206.316406 196.054688 203.4375 201.75 197.796875 206.492188 " fill-opacity="1" fill-rule="nonzero"/><g clip-path="url(#5c4f6c34ab)"><path fill="#2fc9ff" d="M 242.277344 204.648438 C 227.882812 215.816406 211.15625 213.585938 197.796875 206.492188 C 203.4375 201.75 206.316406 196.054688 204.0625 191.148438 C 200.558594 183.566406 187.707031 174.644531 174.125 170.019531 C 175.816406 160.324219 181.710938 151.019531 186.515625 144.136719 C 196.0625 130.5 222.984375 122.875 242.277344 132.375 C 261.574219 141.875 265.28125 186.808594 242.277344 204.648438 " fill-opacity="1" fill-rule="nonzero"/></g><path fill="#9a76ed" d="M 172.675781 164.875 C 175.898438 163.082031 174.3125 153.007812 172.675781 149.464844 C 171.039062 145.917969 155.082031 157.703125 158.050781 159.617188 C 161.019531 161.53125 168.003906 167.476562 172.675781 164.875 " fill-opacity="1" fill-rule="nonzero"/><path fill="#fad53f" d="M 153.96875 157.164062 C 152.246094 160.03125 144.695312 156.148438 140.613281 148.800781 C 136.53125 141.457031 136.902344 128.449219 150.257812 124.730469 C 163.617188 121.015625 179.617188 131.335938 174.542969 144.804688 C 173.628906 147.226562 165.175781 138.53125 153.96875 157.164062 " fill-opacity="1" fill-rule="nonzero"/><path fill="#fad53f" d="M 178.652344 131.792969 C 180.3125 136.253906 203.320312 126.175781 202.207031 123.964844 C 201.09375 121.757812 176.332031 125.574219 178.652344 131.792969 " fill-opacity="1" fill-rule="nonzero"/><path fill="#fad53f" d="M 162.875 119.898438 C 166.585938 119.898438 166.113281 103.171875 160.761719 104.289062 C 158.226562 104.816406 159.164062 119.898438 162.875 119.898438 " fill-opacity="1" fill-rule="nonzero"/><path fill="#fad53f" d="M 134.574219 144.804688 C 134.644531 140.992188 118.351562 144.828125 118.722656 147.976562 C 119.09375 151.125 134.472656 150.378906 134.574219 144.804688 " fill-opacity="1" fill-rule="nonzero"/><path fill="#ffffff" d="M 241.152344 162.515625 C 239.773438 157.273438 236.378906 153.496094 231.84375 152.148438 C 230.320312 151.699219 228.851562 151.46875 227.476562 151.46875 C 227.3125 151.46875 227.167969 151.496094 227.003906 151.5 C 227.183594 150.8125 227.34375 150.058594 227.484375 149.199219 C 227.867188 146.847656 228.117188 141.601562 220 141.296875 C 214 141.074219 210.265625 145.339844 210.265625 151.847656 C 210.265625 153.128906 210.40625 154.308594 210.59375 155.316406 C 209.882812 155.117188 209.136719 154.988281 208.34375 154.988281 C 206.492188 154.988281 204.769531 155.640625 203.230469 156.921875 C 200.664062 159.0625 199.144531 162.554688 198.949219 166.757812 C 198.675781 172.75 201.089844 178.910156 205.414062 183.242188 C 208.363281 186.199219 212.609375 187.761719 217.695312 187.761719 C 224.820312 187.761719 232.859375 184.582031 237.242188 180.03125 C 241.242188 175.875 242.816406 168.835938 241.152344 162.515625 " fill-opacity="1" fill-rule="nonzero"/><path fill="#ffffff" d="M 216.933594 155.824219 C 216.761719 155.761719 216.570312 155.71875 216.367188 155.691406 C 216.511719 155.828125 216.714844 155.84375 216.933594 155.824219 " fill-opacity="1" fill-rule="nonzero"/><path fill="#fad53f" d="M 134.574219 130.308594 C 135.96875 127.640625 123.914062 115.066406 120.207031 119.898438 C 116.496094 124.730469 132.246094 134.765625 134.574219 130.308594 " fill-opacity="1" fill-rule="nonzero"/><path fill="#ff8ee0" d="M 216.636719 161.796875 C 220.382812 160.070312 222.328125 152.929688 230.863281 155.464844 C 239.398438 157.996094 240.554688 171.613281 234.757812 177.632812 C 228.964844 183.648438 214.492188 187.449219 207.851562 180.796875 C 201.214844 174.148438 200.875 163.378906 205.4375 159.578125 C 210 155.78125 214.386719 162.835938 216.636719 161.796875 " fill-opacity="1" fill-rule="nonzero"/><path fill="#7ad450" d="M 215.933594 159.105469 C 214.433594 159.160156 210.132812 144.671875 220.082031 144.753906 C 230.035156 144.835938 218.324219 159.023438 215.933594 159.105469 " fill-opacity="1" fill-rule="nonzero"/><path fill="#ffffff" d="M 160.425781 207.285156 C 158.539062 207.285156 156.789062 206.257812 155.867188 204.605469 L 154.226562 201.667969 L 150.882812 201.359375 C 148.886719 201.171875 147.203125 199.890625 146.484375 198.015625 C 145.769531 196.140625 146.167969 194.058594 147.53125 192.582031 L 149.808594 190.117188 L 149.074219 186.832031 C 148.722656 185.269531 149.09375 183.664062 150.085938 182.417969 C 151.089844 181.160156 152.578125 180.441406 154.171875 180.441406 C 154.933594 180.441406 155.667969 180.605469 156.367188 180.925781 L 159.414062 182.335938 L 162.300781 180.621094 C 163.113281 180.136719 164.035156 179.882812 164.96875 179.882812 C 166.460938 179.882812 167.890625 180.527344 168.886719 181.652344 C 169.875 182.765625 170.339844 184.257812 170.164062 185.746094 L 169.765625 189.082031 L 172.289062 191.304688 C 173.796875 192.628906 174.40625 194.660156 173.886719 196.597656 C 173.367188 198.539062 171.820312 199.984375 169.851562 200.378906 L 166.5625 201.03125 L 165.230469 204.121094 C 164.40625 206.042969 162.519531 207.285156 160.425781 207.285156 " fill-opacity="1" fill-rule="nonzero"/><path fill="#2fc9ff" d="M 166.738281 185.335938 C 166.910156 183.867188 165.332031 182.839844 164.0625 183.59375 L 160.421875 185.757812 C 159.917969 186.058594 159.296875 186.089844 158.765625 185.84375 L 154.921875 184.066406 C 153.582031 183.445312 152.113281 184.632812 152.4375 186.074219 L 153.371094 190.214844 C 153.496094 190.785156 153.335938 191.386719 152.9375 191.816406 L 150.0625 194.929688 C 149.0625 196.015625 149.734375 197.78125 151.203125 197.917969 L 155.421875 198.308594 C 156.003906 198.363281 156.523438 198.703125 156.808594 199.214844 L 158.875 202.917969 C 159.597656 204.207031 161.480469 204.109375 162.066406 202.753906 L 163.742188 198.855469 C 163.972656 198.316406 164.453125 197.925781 165.027344 197.8125 L 169.183594 196.988281 C 170.628906 196.699219 171.117188 194.875 170.011719 193.898438 L 166.832031 191.097656 C 166.390625 190.710938 166.167969 190.132812 166.238281 189.550781 L 166.738281 185.335938 " fill-opacity="1" fill-rule="nonzero"/><path fill="#fad53f" d="M 138.164062 155.199219 C 137.296875 152.867188 118.953125 162.152344 120.765625 166.75 C 122.578125 171.351562 139.695312 159.328125 138.164062 155.199219 " fill-opacity="1" fill-rule="nonzero"/><g fill="#ffffff" fill-opacity="1"><g transform="translate(80.220036, 258.318031)"><g><path d="M 18.585938 -6.242188 L 18.585938 -10.449219 L 12.296875 -10.449219 L 12.296875 -6.242188 L 8.136719 -6.242188 L 8.136719 -25.148438 L 12.296875 -25.148438 L 12.296875 -20.941406 L 18.585938 -20.941406 L 18.585938 -25.148438 C 18.585938 -26.027344 18.445312 -26.8125 18.121094 -27.597656 C 17.796875 -28.386719 17.335938 -29.03125 16.78125 -29.632812 C 16.179688 -30.1875 15.535156 -30.652344 14.746094 -30.972656 C 13.960938 -31.296875 13.175781 -31.4375 12.296875 -31.4375 L 8.136719 -31.4375 C 7.257812 -31.4375 6.472656 -31.296875 5.6875 -30.972656 C 4.898438 -30.652344 4.253906 -30.1875 3.699219 -29.632812 C 3.097656 -29.03125 2.679688 -28.386719 2.359375 -27.597656 C 2.035156 -26.8125 1.847656 -26.027344 1.847656 -25.148438 L 1.847656 -6.242188 C 1.847656 -5.363281 2.035156 -4.578125 2.359375 -3.835938 C 2.679688 -3.050781 3.097656 -2.402344 3.699219 -1.847656 C 4.253906 -1.25 4.898438 -0.832031 5.6875 -0.507812 C 6.472656 -0.183594 7.257812 0 8.136719 0 L 12.296875 0 C 13.175781 0 13.960938 -0.183594 14.746094 -0.507812 C 15.535156 -0.832031 16.179688 -1.25 16.78125 -1.847656 C 17.335938 -2.402344 17.796875 -3.050781 18.121094 -3.835938 C 18.445312 -4.578125 18.585938 -5.363281 18.585938 -6.242188 Z M 18.585938 -6.242188 "/></g></g></g><g fill="#ffffff" fill-opacity="1"><g transform="translate(100.186542, 258.318031)"><g><path d="M 18.585938 -31.4375 L 12.296875 -31.4375 L 12.296875 -18.863281 L 8.136719 -18.863281 L 8.136719 -31.4375 L 1.847656 -31.4375 L 1.847656 0 L 8.136719 0 L 8.136719 -12.574219 L 12.296875 -12.574219 L 12.296875 0 L 18.585938 0 Z M 18.585938 -31.4375 "/></g></g></g><g fill="#ffffff" fill-opacity="1"><g transform="translate(120.615229, 258.318031)"><g><path d="M 8.136719 -31.4375 L 1.847656 -31.4375 L 1.847656 0 L 8.136719 0 Z M 8.136719 -31.4375 "/></g></g></g><g fill="#ffffff" fill-opacity="1"><g transform="translate(130.598481, 258.318031)"><g><path d="M 15.300781 -6.289062 L 8.136719 -6.289062 L 8.136719 -31.4375 L 1.847656 -31.4375 L 1.847656 -1.894531 C 1.847656 -0.832031 2.679688 0 3.746094 0 L 15.300781 0 Z M 15.300781 -6.289062 "/></g></g></g><g fill="#ffffff" fill-opacity="1"><g transform="translate(147.283451, 258.318031)"><g><path d="M 18.585938 -6.242188 L 18.585938 -25.148438 C 18.585938 -26.027344 18.445312 -26.8125 18.121094 -27.597656 C 17.796875 -28.386719 17.335938 -29.03125 16.78125 -29.632812 C 16.179688 -30.1875 15.535156 -30.652344 14.746094 -30.972656 C 13.960938 -31.296875 13.175781 -31.4375 12.296875 -31.4375 L 3.746094 -31.4375 C 2.679688 -31.4375 1.847656 -30.605469 1.847656 -29.539062 L 1.847656 -1.894531 C 1.847656 -0.832031 2.679688 0 3.746094 0 L 12.296875 0 C 13.175781 0 13.960938 -0.183594 14.746094 -0.507812 C 15.535156 -0.832031 16.179688 -1.25 16.78125 -1.847656 C 17.335938 -2.402344 17.796875 -3.050781 18.121094 -3.835938 C 18.445312 -4.578125 18.585938 -5.363281 18.585938 -6.242188 Z M 8.136719 -6.242188 L 8.136719 -25.148438 L 12.296875 -25.148438 L 12.296875 -6.242188 Z M 8.136719 -6.242188 "/></g></g></g><g fill="#ffffff" fill-opacity="1"><g transform="translate(167.712138, 258.318031)"><g/></g></g><g fill="#ffffff" fill-opacity="1"><g transform="translate(178.804644, 258.318031)"><g><path d="M 17.707031 -6.289062 L 17.707031 -8.691406 C 17.707031 -9.476562 17.566406 -10.21875 17.289062 -10.910156 C 17.011719 -11.605469 16.597656 -12.25 16.089844 -12.851562 L 7.210938 -22.746094 L 7.210938 -25.148438 L 11.417969 -25.148438 L 11.417969 -20.988281 L 17.707031 -20.988281 L 17.707031 -25.148438 C 17.707031 -26.027344 17.566406 -26.8125 17.242188 -27.597656 C 16.921875 -28.386719 16.457031 -29.03125 15.902344 -29.632812 C 15.300781 -30.1875 14.65625 -30.652344 13.867188 -30.972656 C 13.082031 -31.296875 12.296875 -31.4375 11.417969 -31.4375 L 7.210938 -31.4375 C 6.332031 -31.4375 5.546875 -31.296875 4.761719 -30.972656 C 3.976562 -30.652344 3.328125 -30.1875 2.773438 -29.632812 C 2.171875 -29.03125 1.757812 -28.386719 1.433594 -27.597656 C 1.109375 -26.8125 0.925781 -26.027344 0.925781 -25.148438 L 0.925781 -22.746094 C 0.925781 -21.960938 1.0625 -21.21875 1.339844 -20.527344 C 1.617188 -19.785156 2.035156 -19.140625 2.542969 -18.539062 L 11.417969 -8.691406 L 11.417969 -6.289062 L 7.210938 -6.289062 L 7.210938 -10.539062 L 0.925781 -10.539062 L 0.925781 -6.289062 C 0.925781 -5.410156 1.109375 -4.621094 1.433594 -3.835938 C 1.757812 -3.050781 2.171875 -2.402344 2.773438 -1.847656 C 3.328125 -1.25 3.976562 -0.832031 4.761719 -0.507812 C 5.546875 -0.183594 6.332031 0 7.210938 0 L 11.417969 0 C 12.296875 0 13.082031 -0.183594 13.867188 -0.507812 C 14.65625 -0.832031 15.300781 -1.25 15.902344 -1.847656 C 16.457031 -2.402344 16.921875 -3.050781 17.242188 -3.835938 C 17.566406 -4.621094 17.707031 -5.410156 17.707031 -6.289062 Z M 17.707031 -6.289062 "/></g></g></g><g fill="#ffffff" fill-opacity="1"><g transform="translate(197.430794, 258.318031)"><g><path d="M 18.585938 -18.863281 L 18.585938 -25.148438 C 18.585938 -26.027344 18.445312 -26.8125 18.121094 -27.597656 C 17.796875 -28.386719 17.335938 -29.03125 16.78125 -29.632812 C 16.179688 -30.1875 15.535156 -30.652344 14.746094 -30.972656 C 13.960938 -31.296875 13.175781 -31.4375 12.296875 -31.4375 L 3.746094 -31.4375 C 2.679688 -31.4375 1.847656 -30.605469 1.847656 -29.539062 L 1.847656 0 L 8.136719 0 L 8.136719 -12.574219 L 12.296875 -12.574219 C 13.175781 -12.574219 13.960938 -12.757812 14.746094 -13.082031 C 15.535156 -13.40625 16.179688 -13.824219 16.78125 -14.421875 C 17.335938 -14.980469 17.796875 -15.625 18.121094 -16.410156 C 18.445312 -17.199219 18.585938 -17.984375 18.585938 -18.863281 Z M 8.136719 -18.863281 L 8.136719 -25.148438 L 12.296875 -25.148438 L 12.296875 -18.863281 Z M 8.136719 -18.863281 "/></g></g></g><g fill="#ffffff" fill-opacity="1"><g transform="translate(217.3973, 258.318031)"><g><path d="M 16.644531 -6.289062 L 8.136719 -6.289062 L 8.136719 -12.574219 L 16.644531 -12.574219 L 16.644531 -18.863281 L 8.136719 -18.863281 L 8.136719 -25.148438 L 16.644531 -25.148438 L 16.644531 -31.4375 L 3.746094 -31.4375 C 2.679688 -31.4375 1.847656 -30.605469 1.847656 -29.539062 L 1.847656 -1.894531 C 1.847656 -0.832031 2.679688 0 3.746094 0 L 16.644531 0 Z M 16.644531 -6.289062 "/></g></g></g><g fill="#ffffff" fill-opacity="1"><g transform="translate(235.884805, 258.318031)"><g><path d="M 16.644531 -6.289062 L 8.136719 -6.289062 L 8.136719 -12.574219 L 16.644531 -12.574219 L 16.644531 -18.863281 L 8.136719 -18.863281 L 8.136719 -25.148438 L 16.644531 -25.148438 L 16.644531 -31.4375 L 3.746094 -31.4375 C 2.679688 -31.4375 1.847656 -30.605469 1.847656 -29.539062 L 1.847656 -1.894531 C 1.847656 -0.832031 2.679688 0 3.746094 0 L 16.644531 0 Z M 16.644531 -6.289062 "/></g></g></g><g fill="#ffffff" fill-opacity="1"><g transform="translate(254.372311, 258.318031)"><g><path d="M 18.585938 -6.242188 L 18.585938 -10.449219 L 12.296875 -10.449219 L 12.296875 -6.242188 L 8.136719 -6.242188 L 8.136719 -25.148438 L 12.296875 -25.148438 L 12.296875 -20.941406 L 18.585938 -20.941406 L 18.585938 -25.148438 C 18.585938 -26.027344 18.445312 -26.8125 18.121094 -27.597656 C 17.796875 -28.386719 17.335938 -29.03125 16.78125 -29.632812 C 16.179688 -30.1875 15.535156 -30.652344 14.746094 -30.972656 C 13.960938 -31.296875 13.175781 -31.4375 12.296875 -31.4375 L 8.136719 -31.4375 C 7.257812 -31.4375 6.472656 -31.296875 5.6875 -30.972656 C 4.898438 -30.652344 4.253906 -30.1875 3.699219 -29.632812 C 3.097656 -29.03125 2.679688 -28.386719 2.359375 -27.597656 C 2.035156 -26.8125 1.847656 -26.027344 1.847656 -25.148438 L 1.847656 -6.242188 C 1.847656 -5.363281 2.035156 -4.578125 2.359375 -3.835938 C 2.679688 -3.050781 3.097656 -2.402344 3.699219 -1.847656 C 4.253906 -1.25 4.898438 -0.832031 5.6875 -0.507812 C 6.472656 -0.183594 7.257812 0 8.136719 0 L 12.296875 0 C 13.175781 0 13.960938 -0.183594 14.746094 -0.507812 C 15.535156 -0.832031 16.179688 -1.25 16.78125 -1.847656 C 17.335938 -2.402344 17.796875 -3.050781 18.121094 -3.835938 C 18.445312 -4.578125 18.585938 -5.363281 18.585938 -6.242188 Z M 18.585938 -6.242188 "/></g></g></g><g fill="#ffffff" fill-opacity="1"><g transform="translate(274.338828, 258.318031)"><g><path d="M 18.585938 -31.4375 L 12.296875 -31.4375 L 12.296875 -18.863281 L 8.136719 -18.863281 L 8.136719 -31.4375 L 1.847656 -31.4375 L 1.847656 0 L 8.136719 0 L 8.136719 -12.574219 L 12.296875 -12.574219 L 12.296875 0 L 18.585938 0 Z M 18.585938 -31.4375 "/></g></g></g></svg>